<svg width="512" height="512" viewBox="0 0 512 512" fill="none" xmlns="http://www.w3.org/2000/svg">
  <rect x="16" y="16" width="480" height="480" rx="100" fill="#ffffff"/>
  <path d="M112 144C112 126.327 126.327 112 144 112H230.627C239.114 112 247.253 115.373 253.255 121.373L290.745 158.863C296.747 164.863 304.886 168.235 313.373 168.235H416C433.673 168.235 448 182.562 448 200.235V368C448 385.673 433.673 400 416 400H144C126.327 400 112 385.673 112 368V144Z" fill="#2563EB"/>
  <rect x="144" y="168" width="224" height="200" rx="8" fill="#EFF6FF"/>
  <rect x="168" y="192" width="176" height="16" rx="8" fill="#BFDBFE"/>
  <rect x="168" y="224" width="128" height="16" rx="8" fill="#BFDBFE"/>
  <path d="M96 232C96 214.327 110.327 200 128 200H416C433.673 200 448 214.327 448 232V368C448 385.673 433.673 400 416 400H128C110.327 400 96 385.673 96 368V232Z" fill="#3B82F6"/>
</svg>
