<svg viewBox="0 0 100 100" fill="none" xmlns="http://www.w3.org/2000/svg">
<path d="M43.75 6.25L12.5 31.25L18.75 75L50 93.75L81.25 75L87.5 31.25L56.25 6.25H43.75Z" fill="#483699"/>
<path d="M50 93.75L18.75 75L43.75 56.25L50 93.75Z" fill="#312471"/>
<path d="M50 93.75L81.25 75L56.25 56.25L50 93.75Z" fill="#312471"/>
<path d="M12.5 31.25L43.75 56.25L18.75 75L12.5 31.25Z" fill="#342976"/>
<path d="M87.5 31.25L56.25 56.25L81.25 75L87.5 31.25Z" fill="#342976"/>
<path d="M12.5 31.25L43.75 6.25L43.75 56.25L12.5 31.25Z" fill="#6C56CC"/>
<path d="M87.5 31.25L56.25 6.25L56.25 56.25L87.5 31.25Z" fill="#6C56CC"/>
<path d="M43.75 6.25L50 25L56.25 6.25H43.75Z" fill="#846EE6"/>
<path d="M43.75 56.25L50 25L56.25 56.25L50 93.75L43.75 56.25Z" fill="#483699"/>
</svg>